<?xml version="1.0" encoding="utf-8"?><!DOCTYPE svg PUBLIC "-//W3C//DTD SVG 1.1//EN" "http://www.w3.org/Graphics/SVG/1.1/DTD/svg11.dtd"><svg xmlns="http://www.w3.org/2000/svg" xmlns:xlink="http://www.w3.org/1999/xlink"><symbol viewBox="0 0 512 512" id="icon--add"><path d="M384 265H264v119h-17V265H128v-17h119V128h17v120h120v17z"/></symbol><symbol viewBox="0 0 60 60" id="icon--calculator"><title>Calculator</title><g fill="none" fill-rule="evenodd"><g transform="translate(12 4)" stroke="#314E55" stroke-width="2" stroke-linejoin="round"><rect stroke-linecap="round" fill="#D8D8D8" width="39" height="53" rx="4"/><path stroke-linecap="round" fill="#73C9C9" d="M4 4h31v16H4z"/><path stroke-linecap="round" fill="#F28544" d="M0 22h39v26H0z"/><path d="M1 31h37.014M1 39h37.014M13 23v22M26 23v22" stroke-linecap="square" fill="#D8D8D8"/></g></g></symbol><symbol viewBox="0 0 512 512" id="icon--edit"><path d="M368 416H80V144h224.117l16-16H64v304h320V191.883l-16 16"/><path d="M237.623 284.084l-9.706-9.707L399.24 103.054 387.927 91.74 208 271.65V304h32.216L420.26 124.016l-11.313-11.286M444.213 80.312l-12.465-12.466c-2.664-2.38-6.192-3.846-10.002-3.846-3.812 0-7.304 1.468-9.93 3.85L399.667 80l.08.08 11.293 11.293 21.02 21.02 12.15-12.15c2.382-2.625 3.79-6.117 3.79-9.93 0-3.81-1.408-7.338-3.787-10z"/></symbol><symbol id="icon--remove" viewBox="0 0 512 512"><style>.dst0{fill:#010101}</style><path class="dst0" d="M340.2 160l-84.4 84.3-84-83.9-11.8 11.8 84 83.8-84 83.9 11.8 11.7 84-83.8 84.4 84.2 11.8-11.7-84.4-84.3 84.4-84.2z"/></symbol></svg>