<?xml version="1.0" encoding="UTF-8" standalone="no"?>
<svg width="136px" height="134px" viewBox="0 0 136 134" version="1.1" xmlns="http://www.w3.org/2000/svg" xmlns:xlink="http://www.w3.org/1999/xlink" xmlns:sketch="http://www.bohemiancoding.com/sketch/ns">
    <!-- Generator: Sketch 3.3.3 (12072) - http://www.bohemiancoding.com/sketch -->
    <title>Group</title>
    <desc>Created with Sketch.</desc>
    <defs>
        <filter x="-50%" y="-50%" width="200%" height="200%" filterUnits="objectBoundingBox" id="filter-1">
            <feOffset dx="0" dy="2" in="SourceAlpha" result="shadowOffsetOuter1"></feOffset>
            <feGaussianBlur stdDeviation="2" in="shadowOffsetOuter1" result="shadowBlurOuter1"></feGaussianBlur>
            <feColorMatrix values="0 0 0 0 0   0 0 0 0 0   0 0 0 0 0  0 0 0 0.35 0" in="shadowBlurOuter1" type="matrix" result="shadowMatrixOuter1"></feColorMatrix>
            <feMerge>
                <feMergeNode in="shadowMatrixOuter1"></feMergeNode>
                <feMergeNode in="SourceGraphic"></feMergeNode>
            </feMerge>
        </filter>
    </defs>
    <g id="happycalculator" stroke="none" stroke-width="1" fill="none" fill-rule="evenodd" sketch:type="MSPage">
        <g id="Group" sketch:type="MSLayerGroup" transform="translate(4.000000, 0.000000)">
            <g id="eyes-up" transform="translate(28.000000, 0.000000)" fill="#0A0B09" sketch:type="MSShapeGroup">
                <path d="M16.8723279,8.67797189 L12.034579,0.517266008 C11.7388214,0.0203248313 11.089211,-0.147910463 10.582198,0.14197189 C10.075185,0.429266008 9.90354001,1.06856013 10.1966569,1.5655013 L15.0370465,9.72361895 C15.3301634,10.2203013 15.9797738,10.3913837 16.4867868,10.1015013 C16.9937997,9.81161895 17.1680855,9.17491307 16.8723279,8.67797189 L16.8723279,8.67797189 Z M11.7916352,18.2673837 L2.26929758,19.6725366 C1.6883452,19.7582072 1.28960061,20.2887954 1.37674347,20.8582072 C1.46388633,21.4250307 2.00522832,21.8158542 2.58591663,21.7304425 L12.1085184,20.3250307 C12.686566,20.2396189 13.0855746,19.7090307 12.9984318,19.1396189 C12.9112889,18.5727954 12.3699469,18.1791248 11.7916352,18.2673837 L11.7916352,18.2673837 Z M11.7176959,15.3219719 C11.7652283,14.7497131 11.329514,14.2478542 10.745921,14.201266 L1.14700321,13.4377366 C0.563410137,13.3908895 0.0511157645,13.8182072 0.00358329697,14.3902072 C-0.0442132398,14.9647954 0.391765115,15.4669131 0.975358189,15.5135013 L10.5742759,16.2770307 C11.1576049,16.3210307 11.6701634,15.8965601 11.7176959,15.3219719 L11.7176959,15.3219719 Z M3.13544477,7.31914836 L11.192198,12.4904425 C11.6833668,12.8036189 12.3408993,12.6690307 12.6630638,12.1902072 C12.9852283,11.7087954 12.8479123,11.0614778 12.3567435,10.7485601 L4.29999022,5.57726601 C3.80882139,5.2615013 3.15128892,5.39608954 2.82912442,5.8775013 C2.50960061,6.35891307 2.64691663,7.00338365 3.13544477,7.31914836 L3.13544477,7.31914836 Z" id="Fill-88"></path>
                <path d="M44.3632476,10.1015013 C44.8702606,10.3913837 45.5225117,10.2203013 45.8153645,9.72361895 L50.6533775,1.56291307 C50.949135,1.06856013 50.77749,0.429266008 50.270477,0.14197189 C49.763464,-0.147910463 49.1138537,0.0203248313 48.8180961,0.517266008 L43.9803472,8.67797189 C43.6845896,9.17491307 43.8562346,9.81161895 44.3632476,10.1015013 L44.3632476,10.1015013 Z M47.8516026,19.1396189 C47.7644597,19.7090307 48.165845,20.2396189 48.7441567,20.3250307 L58.2664943,21.7304425 C58.8474467,21.8158542 59.3887887,21.4250307 59.4759316,20.8556189 C59.5630744,20.2887954 59.1643298,19.7582072 58.5833775,19.6725366 L49.0610398,18.2673837 C48.4798233,18.1791248 47.9413861,18.5727954 47.8516026,19.1396189 L47.8516026,19.1396189 Z M50.2783991,16.2744425 L59.8746762,15.5109131 C60.4609099,15.4669131 60.8966242,14.9647954 60.8490917,14.3902072 C60.8015593,13.8182072 60.2892649,13.3908895 59.7030311,13.4377366 L50.1067541,14.201266 C49.5205203,14.2478542 49.084806,14.7497131 49.1323385,15.3219719 C49.179871,15.8965601 49.6921653,16.3210307 50.2783991,16.2744425 L50.2783991,16.2744425 Z M58.0209099,5.8775013 C57.7013861,5.39608954 57.041213,5.2615013 56.5500441,5.57726601 L48.4959316,10.7485601 C48.0047627,11.0614778 47.8674467,11.7087954 48.1896112,12.1876189 C48.509135,12.6690307 49.1693082,12.8036189 49.660477,12.4904425 L57.7145896,7.31914836 C58.2057584,7.00338365 58.3430744,6.35891307 58.0209099,5.8775013 L58.0209099,5.8775013 Z" id="Fill-89"></path>
            </g>
            <path d="M64.7437534,6.89697889 C81.1085359,7.50556916 95.2446188,14.7918637 106.295779,26.1997833 C117.283981,37.58252 125.18684,53.0868817 127.558664,69.5020303 C129.757983,85.9801364 123.646477,100.91788 111.256839,111.570308 C98.8541887,122.285694 82.6614904,128.216301 65.5915826,127.838555 C48.5506354,127.301317 30.5074029,121.761047 18.3439919,112.036194 C5.94134195,102.277764 -0.576869686,88.3431455 0.0401149315,70.2449301 C0.346508653,52.2936158 10.2602343,34.8459623 22.2263781,23.4674229 C34.4905213,11.8580389 48.8070827,6.32196602 64.7437534,6.89697889" id="Fill-30" fill="#00DEB6" filter="url(#filter-1)" sketch:type="MSShapeGroup"></path>
            <g id="eyes" transform="translate(24.000000, 41.000000)" sketch:type="MSShapeGroup">
                <path d="M10.5400983,0.00600135845 C-0.246882836,0.319969612 0.00047565439,10.4983823 0.00047565439,10.4983823 L2.28047565,10.3742553 C2.28047565,10.3742553 3.54594735,3.49981088 9.76934358,3.12377914 C15.9927398,2.74774739 19.1044379,7.23092199 19.290853,11.6301283 L21.1478341,11.8017156 C21.1478341,11.8017156 21.3234945,-0.307966896 10.5400983,0.00600135845 L10.5400983,0.00600135845 Z M65.3819851,0.00600135845 C54.595004,-0.307966896 54.7706643,11.8017156 54.7706643,11.8017156 L56.6276455,11.6301283 C56.8140606,7.23092199 59.9257587,2.74774739 66.1491549,3.12377914 C72.376136,3.49981088 73.6380228,10.3742553 73.6380228,10.3742553 L75.9216077,10.4983823 C75.9216077,10.4983823 76.1653813,0.319969612 65.3819851,0.00600135845 L65.3819851,0.00600135845 Z" id="Fill-304" fill="#0A0B09"></path>
                <path d="M9.1809434,22.8028571 C5.09773585,22.8028571 1.79245283,20.6671429 1.79245283,18.0312698 C1.79245283,15.3953968 5.09773585,13.2596825 9.1809434,13.2596825 C13.260566,13.2596825 16.569434,15.3953968 16.569434,18.0312698 C16.569434,20.6671429 13.260566,22.8028571 9.1809434,22.8028571 M66.8620755,22.3205873 C62.7788679,22.3205873 59.4735849,20.1852381 59.4735849,17.5493651 C59.4735849,14.9134921 62.7788679,12.7777778 66.8620755,12.7777778 C70.9416981,12.7777778 74.250566,14.9134921 74.250566,17.5493651 C74.250566,20.1852381 70.9416981,22.3205873 66.8620755,22.3205873" id="Fill-305" fill="#EA908F"></path>
            </g>
            <g id="mouse" transform="translate(28.000000, 87.000000)" sketch:type="MSShapeGroup">
                <path d="M67.3696156,0.305823153 C61.7611946,-1.64591018 51.4607161,6.35168982 36.1064577,7.14555649 C20.7521994,7.93942315 17.6930606,3.04448982 7.29267784,0.701023153 C0.0754529611,-0.924843514 -3.76569536,10.4666232 6.95507019,16.4289432 C21.5100941,24.5239565 50.4926778,28.6492898 67.8725821,12.6887565 C73.0124865,7.96715649 71.6000463,1.77915649 67.3696156,0.305823153" id="Fill-135" fill="#21AFC7"></path>
                <path d="M36.8815124,25.6741333 C25.4683066,25.6776 14.3927086,22.6061333 7.00323487,18.5258667 C1.67385688,15.5826667 -0.0830809207,11.3186667 0.378545874,7.94906667 C0.760938218,10.8576 2.72457458,14.0573333 6.9550052,16.4108533 C14.2893593,20.4914667 25.2891679,23.5629333 36.6231392,23.5629333 C47.7745267,23.5629333 59.249742,20.5885333 67.8725172,12.6706667 C70.3115602,10.4308533 71.2761535,7.85893333 71.1624693,5.616 C71.1659143,5.5952 71.1728042,5.57093333 71.1796942,5.54666667 C72.2786416,8.15013333 71.6688808,11.7658667 68.3582588,14.7818667 C59.6769191,22.6997333 48.1155794,25.6741333 36.8815124,25.6741333" id="Fill-136" fill="#BDBCB8"></path>
                <path d="M36.5525559,23.4936 C25.2185846,23.4936 14.2187759,20.4221333 6.88442188,16.34152 C2.65399126,13.988 0.690354896,10.7882667 0.307962551,7.87973333 C0.332077384,7.7168 0.359637192,7.55733333 0.390641977,7.40133333 C1.20365633,9.828 3.15695777,12.3066667 6.62949365,14.2272 C14.0189673,18.3074667 25.0980104,21.3789333 36.5112161,21.3789333 C47.7452831,21.3789333 59.3031779,18.4010667 67.9845176,10.4866667 C69.6966707,8.92666667 70.6853788,7.20373333 71.091886,5.54666667 C71.2055702,7.7896 70.2409769,10.36152 67.8019338,12.6013333 C59.1791587,20.5192 47.7039434,23.4936 36.5525559,23.4936" id="Fill-137" fill="#1A889D"></path>
                <path d="M34.3654728,17.6072 C25.8047073,17.6072 17.2129369,15.8634667 10.3229848,12.3656 C5.83762592,10.088 4.45963549,6.9576 5.42078382,5.64026667 C5.53446803,5.57786667 5.65848717,5.54666667 5.78595128,5.54666667 C6.90212353,5.54666667 8.5040374,7.8 11.0533197,8.9752 C17.8812623,12.1264 26.9518843,14.36552 36.1671953,14.36552 C44.4626977,14.36552 52.8718843,12.5528 59.8720757,7.95253333 C61.3361905,6.9888 62.1113101,6.40986667 63.4686307,6.07013333 C63.5616451,6.04552 63.6443245,6.032 63.716669,6.032 C64.870736,6.032 63.56509,9.13466667 60.9159034,10.8229333 C53.8295876,15.3434667 44.1182001,17.6072 34.3654728,17.6072" id="Fill-138" fill="#1A889D"></path>
                <path d="M6.30222092,6.58666667 C12.1862401,12.2824 23.0551396,15.9189333 34.8748525,15.9189333 C46.608441,15.9189333 57.4428908,12.2928 63.3510248,6.6664 C63.8471013,6.74613333 63.7816468,6.71493333 64.2191587,6.78738667 C57.994087,12.8266667 47.1768621,16.8237333 34.8748525,16.8237333 C22.5349482,16.8237333 11.6936085,12.8058667 5.47542667,6.73573333 C5.9163836,6.63173333 5.85781901,6.68026667 6.30222092,6.58666667" id="Fill-139" fill="#0A0B09"></path>
            </g>
        </g>
    </g>
</svg>